<svg xmlns="http://www.w3.org/2000/svg" xmlns:xlink="http://www.w3.org/1999/xlink" width="24" height="22" viewBox="0 0 24 22"><defs><path id="mulka" d="M438 35h20a2 2 0 1 1 0 4h-20a2 2 0 0 1 0-4z"/><path id="mulkb" d="M438 44h20a2 2 0 1 1 0 4h-20a2 2 0 1 1 0-4z"/><path id="mulkc" d="M438 53h20a2 2 0 0 1 0 4h-20a2 2 0 1 1 0-4z"/></defs><g><g transform="translate(-436 -35)"><use fill="#fff" xlink:href="#mulka"/></g><g transform="translate(-436 -35)"><use fill="#fff" xlink:href="#mulkb"/></g><g transform="translate(-436 -35)"><use fill="#fff" xlink:href="#mulkc"/></g></g></svg>